<svg width="100%" height="100" viewBox="0 0 1440 320" xmlns="http://www.w3.org/2000/svg">
    <defs>
        <linearGradient id="waveGradient" x1="0%" y1="0%" x2="100%" y2="0%">
            <stop offset="0%" style="stop-color:#3B413C;stop-opacity:1" />
            <stop offset="100%" style="stop-color:#6B8E23;stop-opacity:1" />
        </linearGradient>
    </defs>
    <path d="M0,224L48,192C96,160,192,96,288,69.3C384,43,480,53,576,85.3C672,117,768,171,864,186.7C960,203,1056,181,1152,154.7C1248,128,1344,96,1392,80L1440,64L1440,320L1392,320C1344,320,1248,320,1152,320C1056,320,960,320,864,320C768,320,672,320,576,320C480,320,384,320,288,320C192,320,96,320,48,320L0,320Z" fill="url(#waveGradient)"></path>
</svg>